<svg width="48" height="48" viewBox="0 0 48 48" fill="none" xmlns="http://www.w3.org/2000/svg">
<path d="M22.55 41.9C18.45 41.5667 15 39.8833 12.2 36.85C9.4 33.8167 8 30.2167 8 26.05C8 23.4833 8.59167 21.0667 9.775 18.8C10.9583 16.5333 12.6167 14.6833 14.75 13.25L16.9 15.4C15.0333 16.5 13.5833 18.0083 12.55 19.925C11.5167 21.8417 11 23.8833 11 26.05C11 29.3833 12.1 32.2667 14.3 34.7C16.5 37.1333 19.25 38.5333 22.55 38.9V41.9ZM25.55 41.9V38.9C28.8833 38.5 31.6333 37.0917 33.8 34.675C35.9667 32.2583 37.05 29.3833 37.05 26.05C37.05 22.4167 35.7917 19.3417 33.275 16.825C30.7583 14.3083 27.6833 13.05 24.05 13.05H23.05L26.05 16.05L23.9 18.2L17.25 11.55L23.9 4.9L26.05 7.05L23.05 10.05H24.05C28.5167 10.05 32.3 11.6083 35.4 14.725C38.5 17.8417 40.05 21.6167 40.05 26.05C40.05 30.2167 38.6583 33.8167 35.875 36.85C33.0917 39.8833 29.65 41.5667 25.55 41.9Z" fill="white"/>
</svg>
